<svg width="960" height="117" viewBox="0 0 960 117" fill="none" xmlns="http://www.w3.org/2000/svg">
<path d="M44.5455 95.6715C51.2857 106.245 65.3601 116.631 84.7451 116.636C102.498 116.641 120.471 107.41 130.959 98.892C120.506 100.019 109.362 100.612 97.8321 100.592C78.5014 100.558 60.2595 98.7875 44.5455 95.6715Z" fill="#FF462D"/>
<path d="M130.907 49.5869C132.404 42.961 132.487 38.0108 131.261 32.456C129.384 23.9578 124.444 17.8967 116.814 17.8945C114.511 17.8938 112.084 18.4276 109.612 19.4021C117.117 20.293 122.009 26.6757 123.956 35.3687C124.942 39.7753 125.001 44.871 123.765 51.0284C126.772 51.0284 128.826 50.6038 130.907 49.5869Z" fill="#FF462D"/>
<path fill-rule="evenodd" clip-rule="evenodd" d="M53.1264 32.9738C56.8361 28.3601 60.8472 24.0453 65.0448 20.1758C75.4257 10.6063 91.0732 -0.00517055 109.147 1.89018e-06C131.394 0.00636868 143.984 15.1717 149.16 28.3955C149.901 30.2866 150.541 32.2298 151.085 34.2143C179.51 39.8559 198.46 49.9443 198.444 61.4195C198.419 78.9822 153.976 93.1423 99.1769 93.0471C44.3781 92.9519 -0.0248003 78.4903 1.03924e-05 60.9277C0.0172798 48.703 21.5551 38.1981 53.1264 32.9738ZM138.359 30.3785C140.05 37.984 139.935 44.9554 137.871 54.0274C130.639 56.5313 123.606 58.3311 107.059 58.3264C93.735 58.3021 83.6837 57.2902 69.1032 54.1082C79.2504 31.6912 101.313 10.4364 118.436 10.4413C128.958 10.4443 135.771 18.743 138.359 30.3785ZM99.9702 80.9009C92.4687 80.887 86.3898 79.0901 86.3926 76.8875C86.3954 74.6848 92.4789 72.9105 99.9805 72.9244C107.482 72.9383 113.561 74.7536 113.558 76.9562C113.555 79.1589 107.472 80.9148 99.9702 80.9009ZM15.2897 58.9647C15.2869 61.1674 21.3658 62.9642 28.8673 62.9781C36.3689 62.992 42.4524 61.2361 42.4552 59.0335C42.4581 56.8309 36.3792 55.0156 28.8776 55.0017C21.376 54.9878 15.2925 56.7621 15.2897 58.9647ZM171.06 63.0196C163.559 63.0057 157.48 61.2088 157.482 59.0062C157.485 56.8036 163.569 55.0292 171.07 55.0431C178.572 55.057 184.651 56.8723 184.648 59.075C184.645 61.2776 178.562 63.0335 171.06 63.0196Z" fill="#FF462D"/>
<path d="M422.727 44.3172L453.995 44.3483L460.509 25.8189H407.659L385.091 89.7414H406.673L422.727 44.3069L422.727 44.3172ZM464.49 89.8357L472.713 66.5343L492.791 66.5757L484.597 89.8156L506.179 89.8363L528.756 25.807L507.174 25.7863L499.303 48.1113L479.225 48.0802L487.087 25.776L465.504 25.7553L442.908 89.815L464.49 89.8357ZM606.01 89.8656L627.592 89.8759L643.693 44.2406H662.7L669.196 25.8589L607.667 25.8175L601.172 44.2095L622.111 44.2302L606.01 89.8656ZM535.304 89.8736L570.187 55.2217L557.984 89.8558L579.567 89.8765L602.15 25.8381H577.256L546.179 57.1986L557.252 25.8174L535.669 25.7967L513.067 89.8529H535.313L535.314 89.8632L535.304 89.8736ZM266.808 89.7806L292.317 50.4402L278.459 89.7806L300.04 89.7385L322.619 25.7451L290.583 25.7244L265.329 64.7543L266.26 25.683H237.245L214.645 89.7806H236.225L250.107 50.3988L248.527 89.7806H266.808ZM329.396 89.7213L334.716 80.9001L359.902 80.9518L360.511 89.7414H381.532L377.151 25.6932L345.8 25.6725L305.229 89.7213H329.396ZM357.324 43.164L358.86 65.7477L343.807 65.7166L357.323 43.1536L357.324 43.164Z" fill="#FF462D"/>
<path d="M689.41 89.823L704.904 44.1875L725.342 44.2289L709.247 89.7822L731.11 89.8029L753.984 25.7426L690.734 25.6908L667.828 89.8023L689.41 89.823Z" fill="#FF462D"/>
<path d="M895.87 89.7925L917.452 89.8029L933.553 44.1675H952.56L959.055 25.7859L897.527 25.7445L891.032 44.1365L911.971 44.1572L895.87 89.7925Z" fill="#FF462D"/>
<path d="M843.867 91.6794C826.299 91.6794 813.551 80.4645 820.362 58.4052L820.62 57.5711C827.431 35.5119 845.111 24.2969 864.491 24.2969C881.968 24.2969 890.727 33.4728 888.464 49.6001H868.632C869.305 44.7804 865.631 41.7218 859.111 41.7218C851.051 41.7218 842.609 47.6537 839.547 57.5711L839.289 58.4052C836.227 68.3226 840.463 74.2545 848.523 74.2545C856.129 74.2545 861.692 71.1959 863.995 66.3762H883.828C876.67 82.2255 861.616 91.6794 843.867 91.6794Z" fill="#FF462D"/>
<path d="M792.871 24.3895C814.153 24.3895 823.687 38.3851 817.734 57.6637L817.563 58.2198C811.381 78.24 793.195 91.6794 772.095 91.6794C750.905 91.6794 741.108 78.24 747.29 58.2198L747.461 57.6637C753.414 38.3851 771.59 24.3895 792.871 24.3895ZM787.148 42.9267C777.639 42.9267 769.573 49.6927 767.112 57.6637L766.941 58.2198C764.48 66.1908 768.31 73.1423 777.819 73.1423C787.237 73.1423 795.36 66.1908 797.821 58.2198L797.993 57.6637C800.454 49.6927 796.566 42.9267 787.148 42.9267Z" fill="#FF462D"/>
</svg>
