<svg width="215" height="171" viewBox="0 0 215 171" fill="none" xmlns="http://www.w3.org/2000/svg">
<path fill-rule="evenodd" clip-rule="evenodd" d="M93.8423 95.5724L46.2827 79.0755L80.2335 11.5938L127.797 28.0906L93.8423 95.5724Z" fill="url(#paint0_linear_1611_2724)"/>
<path fill-rule="evenodd" clip-rule="evenodd" d="M80.6474 70.9952H27.5469L40.0643 0H93.1649L80.6474 70.9952Z" fill="url(#paint1_linear_1611_2724)"/>
<path fill-rule="evenodd" clip-rule="evenodd" d="M103.972 115.267H6.29633C2.82066 115.267 0.49515 112.446 1.10801 108.97L11.4511 50.3164H115.423C118.899 50.3164 121.224 53.1372 120.612 56.6129L111.381 108.97C110.768 112.446 107.452 115.267 103.976 115.267H103.972Z" fill="#FF462D"/>
<path fill-rule="evenodd" clip-rule="evenodd" d="M47.8826 115.268H-0.000244141L12.0261 47.0602C12.6389 43.5845 15.9551 40.7637 19.4308 40.7637H54.7206C58.1963 40.7637 60.5218 43.5845 59.9089 47.0602L47.8826 115.268Z" fill="#FF462D"/>
<path fill-rule="evenodd" clip-rule="evenodd" d="M75.4104 50.3167C75.4104 50.3167 99.3581 53.5825 91.5672 89.6657C83.9485 138.497 121.404 152.148 121.404 152.148L196.786 149.655C196.786 149.655 152.95 126.723 156.279 96.5247C159.095 70.9902 159.805 59.56 132.071 50.3125H75.4104V50.3167Z" fill="url(#paint2_linear_1611_2724)"/>
<path d="M105.132 114.245C105.481 108.3 113.522 108.019 117.261 110.691C127.507 118.015 127.437 133.092 127.027 144.409C126.884 148.348 126.573 152.225 125.806 156.095C125.029 160.017 124.636 164.218 123.542 168.058C122.48 171.785 119.969 169.389 118.6 167.15C113.347 158.564 113.889 147.07 116.158 137.697C117.725 131.227 120.137 124.365 124.743 119.377C127.625 116.257 131.561 114.219 135.473 112.705C137.402 111.958 140.342 110.781 142.463 111.382C144.212 111.878 144.584 115.649 144.668 117.008C144.788 118.945 143.4 130.407 139.844 126.247C137.12 123.061 137.303 118.67 141.085 116.456C143.815 114.857 148.279 113.289 150.122 116.831C151.829 120.11 152.322 123.905 152.268 127.55C152.251 128.71 152.078 128.488 151.992 127.353C151.774 124.449 152.056 121.748 153.213 119.042C158.622 106.388 172.187 100.937 184.598 97.5833C194.174 94.9956 203.751 94.7012 213.58 94.7012" stroke="#FF462D" stroke-width="1.04186" stroke-linecap="round"/>
<defs>
<linearGradient id="paint0_linear_1611_2724" x1="56.0886" y1="43.1248" x2="87.04" y2="72.2001" gradientUnits="userSpaceOnUse">
<stop stop-color="white"/>
<stop offset="1" stop-color="#FF462D"/>
</linearGradient>
<linearGradient id="paint1_linear_1611_2724" x1="75.056" y1="57.9279" x2="101.921" y2="-15.9512" gradientUnits="userSpaceOnUse">
<stop stop-color="white"/>
<stop offset="1" stop-color="#FF462D"/>
</linearGradient>
<linearGradient id="paint2_linear_1611_2724" x1="94.3655" y1="101.23" x2="206.86" y2="123.411" gradientUnits="userSpaceOnUse">
<stop stop-color="white"/>
<stop offset="1" stop-color="#FF462D"/>
</linearGradient>
</defs>
</svg>
