<svg width="184" height="180" viewBox="0 0 184 180" fill="none" xmlns="http://www.w3.org/2000/svg">
<path fill-rule="evenodd" clip-rule="evenodd" d="M94.4017 43.793C9.89857 77.793 15.8974 179.661 15.8974 179.661H142.398C142.398 179.661 111.148 112.293 149.648 47.043L94.4017 43.793Z" fill="url(#paint0_linear_1611_2683)"/>
<path d="M121.39 92.293C116.89 103.626 110.043 136.143 123.643 166.543" stroke="#FF462D" stroke-linecap="round" stroke-linejoin="round"/>
<path d="M89.4294 123.302H12.8107C10.9172 123.302 9.11199 124.836 8.78076 126.73L0.052888 176.232C-0.278341 178.126 0.980328 179.66 2.87385 179.66H79.487C81.3805 179.66 83.1857 178.126 83.517 176.232L92.2448 126.73C92.5761 124.836 91.3174 123.302 89.4239 123.302H89.4294ZM60.3475 142.822H35.0141C32.1489 142.822 30.2333 140.498 30.7357 137.633C31.2436 134.768 33.9762 132.444 36.8413 132.444H62.1748C65.0399 132.444 66.9555 134.768 66.4532 137.633C65.9453 140.498 63.2126 142.822 60.3475 142.822Z" fill="#FF462D"/>
<path d="M99.6522 117.123H4.76077C2.86725 117.123 1.60306 115.588 1.93981 113.694L2.95006 107.975C3.28129 106.082 5.08648 104.547 6.98 104.547H101.866C103.759 104.547 105.024 106.082 104.687 107.975L103.677 113.694C103.345 115.588 101.54 117.123 99.6467 117.123H99.6522Z" fill="#FF462D"/>
<path fill-rule="evenodd" clip-rule="evenodd" d="M74.801 63.9543C79.0242 71.6292 88.3504 79.4935 101.846 80.3463C114.204 81.1314 127.117 75.4734 134.792 69.9913C127.469 70.3162 119.686 70.2485 111.659 69.7206C98.2046 68.8543 85.6026 66.8104 74.801 63.9543ZM72.3104 57.43C72.2562 57.2269 72.2021 57.0239 72.1615 56.8073C52.5885 52.0021 51.3567 45.5454 51.817 38.3037C52.5344 27.2313 74.3543 19.6377 112.512 22.1012C150.67 24.5647 177.092 35.38 176.375 46.4523C175.874 54.1543 166.223 60.2048 144.024 62.1134C143.415 62.709 142.805 63.3046 142.183 63.8731C133.005 64.6988 122.772 64.8341 112.011 64.1303C97.1082 63.1692 83.4098 60.7327 72.2968 57.4029L72.3104 57.43Z" fill="#FF462D"/>
<path fill-rule="evenodd" clip-rule="evenodd" d="M83.542 20.6124C86.3304 17.5532 89.3083 14.7242 92.3945 12.2065C100.042 5.99355 111.399 -0.733805 123.974 0.0648143C139.445 1.0394 147.54 12.1659 150.558 21.6275C150.992 22.9811 151.343 24.3618 151.641 25.7695C171.16 30.9538 183.897 38.8182 183.383 46.8179C182.584 59.0679 151.046 67 112.915 64.5229C74.7978 62.0594 44.545 50.0259 45.3436 37.7759C45.8986 29.2483 61.343 22.8729 83.542 20.6124Z" fill="#FF462D"/>
<path fill-rule="evenodd" clip-rule="evenodd" d="M104.741 52.6938C104.647 54.2234 108.789 55.7529 114.013 56.0913C119.238 56.4297 123.543 55.4687 123.637 53.9391C123.732 52.4096 119.59 50.8665 114.365 50.5281C109.14 50.1897 104.836 51.1643 104.741 52.6938Z" fill="white"/>
<path fill-rule="evenodd" clip-rule="evenodd" d="M56.0602 37.0844C55.9654 38.614 60.1074 40.1436 65.3323 40.482C70.5571 40.8204 74.8616 39.8593 74.9563 38.3297C75.0511 36.8002 70.9091 35.2571 65.6842 34.9187C60.4593 34.5803 56.1549 35.5549 56.0602 37.0844Z" fill="white"/>
<path fill-rule="evenodd" clip-rule="evenodd" d="M155.006 43.3413C154.912 44.8708 159.054 46.4004 164.279 46.7388C169.503 47.0772 173.808 46.1161 173.903 44.5866C173.997 43.057 169.855 41.5139 164.631 41.1755C159.419 40.8371 155.101 41.8117 155.006 43.3413Z" fill="white"/>
<path fill-rule="evenodd" clip-rule="evenodd" d="M141.564 39.0078C143.405 32.7677 143.798 27.9083 142.958 22.5346C141.672 14.3047 137.3 8.21357 129.977 7.75335C118.066 6.99534 101.768 20.8561 93.7146 36.0434C103.718 38.8995 110.662 40.0501 119.934 40.6456C131.439 41.3766 136.42 40.4291 141.564 38.9943V39.0078Z" fill="white"/>
<path fill-rule="evenodd" clip-rule="evenodd" d="M141.564 39.0078C143.405 32.7677 143.798 27.9083 142.958 22.5346C141.672 14.3047 137.3 8.21357 129.977 7.75335C118.066 6.99534 101.768 20.8561 93.7146 36.0434C103.718 38.8995 110.662 40.0501 119.934 40.6456C131.439 41.3766 136.42 40.4291 141.564 38.9943V39.0078Z" fill="white"/>
<path d="M99.2996 135.543C98.3672 144.355 99.7348 150.918 102.485 158.043" stroke="#FF462D" stroke-linecap="round" stroke-linejoin="round"/>
<path d="M69.1516 75.0449C64.3978 79.2945 57.6508 88.4189 55.1529 95.9166" stroke="#FF462D" stroke-linecap="round" stroke-linejoin="round"/>
<defs>
<linearGradient id="paint0_linear_1611_2683" x1="114.398" y1="60.793" x2="89.3984" y2="267.793" gradientUnits="userSpaceOnUse">
<stop stop-color="white"/>
<stop offset="1" stop-color="#FF462D"/>
</linearGradient>
</defs>
</svg>
