<svg width="157" height="163" viewBox="0 0 157 163" fill="none" xmlns="http://www.w3.org/2000/svg">
<path d="M78.4028 158.646C121.703 158.646 156.806 123.544 156.806 80.2436C156.806 36.9429 121.703 1.84082 78.4028 1.84082C35.1021 1.84082 0 36.9429 0 80.2436C0 123.544 35.1021 158.646 78.4028 158.646Z" fill="url(#paint0_linear_1611_2607)"/>
<path d="M153.219 56.7407C135.437 38.8496 108.139 27.3965 77.5303 27.3965C46.9211 27.3965 22.201 37.799 4.41357 54.2602" stroke="#FF462D" stroke-width="0.961356" stroke-miterlimit="10"/>
<path d="M155.087 96.6193C137.38 77.6187 109.232 65.334 77.5299 65.334C45.8277 65.334 19.1854 76.9732 1.41211 95.114" stroke="#FF462D" stroke-width="0.961356" stroke-miterlimit="10"/>
<path d="M143.399 124.109C126.1 111.179 102.958 103.275 77.5333 103.275C52.1089 103.275 30.0082 110.828 12.8403 123.247" stroke="#FF462D" stroke-width="0.961356" stroke-miterlimit="10"/>
<path d="M112.984 150.624C124.43 133.76 131.322 112.006 131.322 88.2607C131.322 51.2229 114.552 19.0308 89.896 2.68262" stroke="#FF462D" stroke-width="0.961356" stroke-miterlimit="10"/>
<path d="M69.3811 158.128C84.1769 140.48 93.3827 115.701 93.3827 88.26C93.3827 53.0549 78.2336 22.2314 55.5605 5.22363" stroke="#FF462D" stroke-width="0.961356" stroke-miterlimit="10"/>
<path d="M30.9609 17.8242C46.0394 35.508 55.4431 60.5249 55.4431 88.2602C55.4431 110.771 49.2478 131.491 38.8547 147.952" stroke="#FF462D" stroke-width="0.961356" stroke-miterlimit="10"/>
<path fill-rule="evenodd" clip-rule="evenodd" d="M97.6631 69.3427C98.0935 68.2492 98.4181 67.1123 98.6229 65.9476C100.178 57.1269 94.2889 49.9775 85.4681 49.9775C78.6052 49.9775 71.9887 54.3064 68.6579 60.3848C67.5176 59.6835 66.1342 59.2843 64.586 59.2843C59.7243 59.2843 55.0883 63.2261 54.2309 68.0878C54.1423 68.5859 54.0989 69.0754 54.0937 69.5509C48.1125 70.6167 42.8291 75.6936 41.753 81.7945C40.5397 88.6696 45.1324 94.2446 52.0074 94.2446H95.7694C102.645 94.2446 109.202 88.6713 110.415 81.7945C111.628 74.9194 107.036 69.3444 100.161 69.3444H97.6613L97.6631 69.3427Z" fill="white"/>
<path d="M34.1287 12.2404C36.736 9.85297 37.2266 6.14513 35.2245 3.9587C33.2224 1.77228 29.4858 1.93524 26.8786 4.32267C24.2713 6.71011 23.7807 10.418 25.7828 12.6044C27.7849 14.7908 31.5215 14.6278 34.1287 12.2404Z" fill="white"/>
<path fill-rule="evenodd" clip-rule="evenodd" d="M36.7304 25.0064H18.3787C18.271 25.0064 18.1986 24.9189 18.218 24.8112L18.8019 21.498C19.7147 16.322 24.6501 12.127 29.8253 12.127C35.0014 12.127 38.4568 16.3228 37.5439 21.498L36.96 24.8112C36.9407 24.9189 36.838 25.0064 36.7304 25.0064Z" fill="white"/>
<path fill-rule="evenodd" clip-rule="evenodd" d="M120.632 138.088C119.202 138.088 118.246 136.927 118.498 135.496L121.767 116.956H126.951L123.682 135.496C123.43 136.927 122.065 138.088 120.632 138.088Z" fill="white"/>
<path d="M132.127 120.447C137.181 115.818 138.132 108.63 134.251 104.392C130.37 100.153 123.126 100.469 118.071 105.097C113.017 109.726 112.066 116.914 115.947 121.152C119.828 125.391 127.072 125.075 132.127 120.447Z" fill="white"/>
<path d="M130.067 118.2C133.641 114.927 134.314 109.844 131.569 106.847C128.825 103.85 123.702 104.073 120.128 107.346C116.554 110.619 115.881 115.702 118.626 118.699C121.37 121.697 126.493 121.473 130.067 118.2Z" fill="#FF462D"/>
<path fill-rule="evenodd" clip-rule="evenodd" d="M17.9558 101.505H0.590118C0.447888 101.505 0.353637 101.39 0.378484 101.248L4.92812 75.4406C4.95297 75.2984 5.08834 75.1836 5.23057 75.1836H22.5963C22.7385 75.1836 22.8328 75.2984 22.8079 75.4406L18.2574 101.248C18.2326 101.39 18.0972 101.505 17.955 101.505H17.9558Z" fill="white"/>
<path fill-rule="evenodd" clip-rule="evenodd" d="M1.11572 97.0615H5.30464C5.44687 97.0615 5.54112 97.1763 5.51627 97.3186L4.77771 101.507L1.11572 97.0615Z" fill="#FF462D"/>
<path fill-rule="evenodd" clip-rule="evenodd" d="M20.0011 77.8076H6.89795L7.4463 74.6982H20.5494L20.0011 77.8076Z" fill="#FF462D"/>
<path d="M15.2603 76.6541C16.228 75.768 16.4102 74.3918 15.6672 73.5804C14.9242 72.769 13.5374 72.8296 12.5697 73.7158C11.6019 74.6019 11.4197 75.9781 12.1627 76.7895C12.9057 77.6009 14.2925 77.5403 15.2603 76.6541Z" fill="#FF462D"/>
<path fill-rule="evenodd" clip-rule="evenodd" d="M46.1373 149.186H16.29C16.1396 149.186 16.0399 149.065 16.0662 148.915L17.8103 139.021C17.8366 138.87 17.9797 138.749 18.1301 138.749H47.9775C48.1279 138.749 48.2275 138.87 48.2012 139.021L46.4571 148.915C46.4309 149.065 46.2877 149.186 46.1373 149.186Z" fill="white"/>
<path fill-rule="evenodd" clip-rule="evenodd" d="M43.7906 162.496H13.9433C13.7929 162.496 13.6933 162.375 13.7195 162.224L15.4636 152.33C15.4899 152.18 15.6331 152.059 15.7835 152.059H45.6308C45.7812 152.059 45.8808 152.18 45.8546 152.33L44.1105 162.224C44.0842 162.375 43.941 162.496 43.7906 162.496Z" fill="white"/>
<path d="M43.4208 145.56C44.4677 144.601 44.6648 143.112 43.8608 142.234C43.0569 141.356 41.5564 141.422 40.5095 142.38C39.4625 143.339 39.2655 144.828 40.0694 145.706C40.8733 146.584 42.3738 146.518 43.4208 145.56Z" fill="#FF462D"/>
<path fill-rule="evenodd" clip-rule="evenodd" d="M36.7254 144.966H19.9946L20.3462 142.971H37.0769L36.7254 144.966Z" fill="#FF462D"/>
<path d="M41.0731 158.869C42.1201 157.911 42.3171 156.422 41.5132 155.544C40.7092 154.666 39.2088 154.731 38.1618 155.69C37.1148 156.649 36.9178 158.138 37.7218 159.015C38.5257 159.893 40.0261 159.828 41.0731 158.869Z" fill="#FF462D"/>
<path fill-rule="evenodd" clip-rule="evenodd" d="M34.3748 158.277H17.644L17.9965 156.282H34.7263L34.3748 158.277Z" fill="#FF462D"/>
<path fill-rule="evenodd" clip-rule="evenodd" d="M152.954 45.4116H121.589C121.422 45.4116 121.311 45.2771 121.341 45.1105L124.833 25.308C124.862 25.1413 125.02 25.0068 125.187 25.0068H156.552C156.719 25.0068 156.829 25.1413 156.8 25.308L153.308 45.1105C153.279 45.2771 153.121 45.4116 152.954 45.4116Z" fill="white"/>
<path fill-rule="evenodd" clip-rule="evenodd" d="M123.325 33.8497H155.293L156.153 28.9746H124.184L123.325 33.8497Z" fill="#FF462D"/>
<path fill-rule="evenodd" clip-rule="evenodd" d="M137.268 43.1447H125.097L125.396 41.4443H137.567L137.268 43.1447Z" fill="#FF462D"/>
<defs>
<linearGradient id="paint0_linear_1611_2607" x1="-4.15625" y1="-48.999" x2="153.344" y2="179.501" gradientUnits="userSpaceOnUse">
<stop offset="0.0335397" stop-color="#FF462D"/>
<stop offset="1" stop-color="white"/>
</linearGradient>
</defs>
</svg>
