<svg width="215" height="171" viewBox="0 0 215 171" fill="none" xmlns="http://www.w3.org/2000/svg">
<path fill-rule="evenodd" clip-rule="evenodd" d="M94.3392 95.5599L46.7861 79.0653L80.7323 11.5928L128.29 28.0874L94.3392 95.5599Z" fill="url(#paint0_linear_1611_2715)"/>
<path fill-rule="evenodd" clip-rule="evenodd" d="M81.1463 70.9855H28.053L40.5687 0H93.662L81.1463 70.9855Z" fill="url(#paint1_linear_1611_2715)"/>
<path fill-rule="evenodd" clip-rule="evenodd" d="M104.468 115.252H6.80537C3.33018 115.252 1.00499 112.432 1.61776 108.957L11.9594 50.3105H115.917C119.393 50.3105 121.718 53.131 121.105 56.6062L111.876 108.957C111.263 112.432 107.947 115.252 104.472 115.252H104.468Z" fill="white"/>
<path fill-rule="evenodd" clip-rule="evenodd" d="M48.3858 115.251H0.509521L12.5342 47.0525C13.147 43.5773 16.4627 40.7568 19.9379 40.7568H55.2229C58.6981 40.7568 61.0233 43.5773 60.4105 47.0525L48.3858 115.251Z" fill="white"/>
<path fill-rule="evenodd" clip-rule="evenodd" d="M75.9082 50.3108C75.9082 50.3108 99.8526 53.5762 92.0628 89.6544C84.4451 138.479 121.896 152.128 121.896 152.128L197.267 149.635C197.267 149.635 153.437 126.706 156.765 96.5125C159.582 70.9815 160.291 59.5528 132.561 50.3066H75.9082V50.3108Z" fill="url(#paint2_linear_1611_2715)"/>
<path d="M105.625 114.231C105.974 108.287 114.013 108.006 117.752 110.678C127.997 118.001 127.927 133.076 127.517 144.391C127.374 148.329 127.063 152.206 126.296 156.076C125.519 159.997 125.126 164.198 124.032 168.037C122.97 171.764 120.46 169.368 119.091 167.129C113.838 158.545 114.381 147.052 116.65 137.68C118.216 131.211 120.627 124.35 125.233 119.363C128.114 116.243 132.05 114.206 135.962 112.692C137.89 111.945 140.83 110.768 142.951 111.369C144.7 111.865 145.072 115.635 145.156 116.995C145.275 118.931 143.888 130.391 140.332 126.232C137.609 123.046 137.791 118.656 141.573 116.442C144.303 114.844 148.766 113.275 150.609 116.817C152.315 120.096 152.808 123.89 152.755 127.535C152.738 128.694 152.564 128.473 152.479 127.337C152.26 124.434 152.543 121.734 153.7 119.028C159.108 106.376 172.671 100.925 185.08 97.5722C194.655 94.9848 204.23 94.6904 214.058 94.6904" stroke="white" stroke-width="1.16428" stroke-linecap="round"/>
<defs>
<linearGradient id="paint0_linear_1611_2715" x1="114.14" y1="6.26287" x2="71.6401" y2="51.4465" gradientUnits="userSpaceOnUse">
<stop stop-color="white"/>
<stop offset="1" stop-color="#FF462D"/>
</linearGradient>
<linearGradient id="paint1_linear_1611_2715" x1="80.5875" y1="-6.71044" x2="71.1929" y2="70.6833" gradientUnits="userSpaceOnUse">
<stop stop-color="white"/>
<stop offset="1" stop-color="#FF462D"/>
</linearGradient>
<linearGradient id="paint2_linear_1611_2715" x1="158.875" y1="152.104" x2="48.8236" y2="50.1057" gradientUnits="userSpaceOnUse">
<stop stop-color="white"/>
<stop offset="0.737586" stop-color="#FF462D"/>
</linearGradient>
</defs>
</svg>
