<svg width="142" height="186" viewBox="0 0 142 186" fill="none" xmlns="http://www.w3.org/2000/svg">
<path d="M2.89141 137.762L2.8914 137.762C2.30406 141.55 4.54547 144.798 8.06922 144.798H71.9677C75.4026 144.798 78.565 141.674 79.148 137.914L99.3211 7.91909C99.9084 4.13141 97.667 0.882931 94.1432 0.882931H30.2486C26.8136 0.882931 23.6512 4.00752 23.0683 7.76704L2.89141 137.762Z" stroke="white" stroke-width="0.99195" stroke-miterlimit="10"/>
<path fill-rule="evenodd" clip-rule="evenodd" d="M68.6709 145.619H4.77625C1.63594 145.619 -0.465182 142.669 0.0885442 139.033L20.2616 6.58633C20.8153 2.95068 23.8115 0 26.9518 0H90.8503C93.9906 0 96.0917 2.95068 95.538 6.58633L75.3649 139.033C74.8112 142.669 71.815 145.619 68.6747 145.619H68.6709Z" fill="white"/>
<path fill-rule="evenodd" clip-rule="evenodd" d="M63.6585 139.473H11.6576C8.51729 139.473 6.41617 136.522 6.96989 132.886L25.2353 12.9711C25.789 9.33544 28.7852 6.38477 31.9255 6.38477H83.9264C87.0667 6.38477 89.1678 9.33544 88.6141 12.9711L70.3525 132.886C69.7988 136.522 66.8026 139.473 63.6623 139.473H63.6585Z" fill="url(#paint0_linear_1610_2599)"/>
<path fill-rule="evenodd" clip-rule="evenodd" d="M76.9021 32.2451C76.7791 33.0527 76.0846 33.6494 75.2677 33.6494H32.782C31.7698 33.6494 30.9952 32.748 31.1476 31.7473L32.3431 23.8965C32.4661 23.0889 33.1606 22.4922 33.9776 22.4922H76.4632C77.4755 22.4922 78.25 23.3936 78.0976 24.3943L76.9021 32.2451Z" fill="#FF462D"/>
<path fill-rule="evenodd" clip-rule="evenodd" d="M74.1358 50.4336C74.0129 51.2412 73.3184 51.8379 72.5014 51.8379H30.012C28.9997 51.8379 28.2252 50.9365 28.3776 49.9358L29.5731 42.085C29.6961 41.2774 30.3906 40.6807 31.2075 40.6807H73.697C74.7092 40.6807 75.4838 41.5821 75.3314 42.5828L74.1358 50.4336Z" fill="#FF462D"/>
<path d="M108.046 158.845C124.424 143.847 127.507 120.555 114.932 106.821C102.356 93.0874 78.8833 94.1123 62.5043 109.11C46.1254 124.108 43.0424 147.4 55.6183 161.134C68.1941 174.868 91.6666 173.843 108.046 158.845Z" fill="white"/>
<path d="M80.6467 137.603L109.116 76.4964C109.452 75.7849 110.173 75.3174 110.956 75.3174H140.198C141.022 75.3174 141.499 76.2423 141.032 76.9233L86.8976 153.733C86.5216 154.272 85.9016 154.597 85.2409 154.597H74.4365C74.0096 154.597 73.6233 154.333 73.481 153.927L62.0159 122.418C61.772 121.757 62.27 121.056 62.9713 121.056H76.0322C77.0181 121.056 77.8618 121.767 78.0345 122.733L80.6569 137.603H80.6467Z" fill="url(#paint1_linear_1610_2599)"/>
<defs>
<linearGradient id="paint0_linear_1610_2599" x1="-2.75146" y1="46.002" x2="126.805" y2="60.5394" gradientUnits="userSpaceOnUse">
<stop stop-color="white"/>
<stop offset="1" stop-color="#FF462D"/>
</linearGradient>
<linearGradient id="paint1_linear_1610_2599" x1="133.75" y1="75.3174" x2="82.6726" y2="154.597" gradientUnits="userSpaceOnUse">
<stop stop-color="white"/>
<stop offset="1" stop-color="#FF462D"/>
</linearGradient>
</defs>
</svg>
