<svg width="142" height="186" viewBox="0 0 142 186" fill="none" xmlns="http://www.w3.org/2000/svg">
<path d="M3.14141 137.762L3.1414 137.762C2.55406 141.55 4.79547 144.798 8.31922 144.798H72.2177C75.6526 144.798 78.815 141.674 79.398 137.914L99.5711 7.91909C100.158 4.13141 97.917 0.882931 94.3932 0.882931H30.4986C27.0636 0.882931 23.9012 4.00752 23.3183 7.76704L3.14141 137.762Z" stroke="#FF462D" stroke-width="0.99195" stroke-miterlimit="10"/>
<path fill-rule="evenodd" clip-rule="evenodd" d="M68.9209 145.619H5.02625C1.88594 145.619 -0.215182 142.669 0.338544 139.033L20.5116 6.58633C21.0653 2.95068 24.0615 0 27.2018 0H91.1003C94.2406 0 96.3417 2.95068 95.788 6.58633L75.6149 139.033C75.0612 142.669 72.065 145.619 68.9247 145.619H68.9209Z" fill="#FF462D"/>
<path fill-rule="evenodd" clip-rule="evenodd" d="M63.9085 139.473H11.9076C8.76729 139.473 6.66617 136.522 7.21989 132.886L25.4853 12.9711C26.039 9.33544 29.0352 6.38477 32.1755 6.38477H84.1764C87.3167 6.38477 89.4178 9.33544 88.8641 12.9711L70.6025 132.886C70.0488 136.522 67.0526 139.473 63.9123 139.473H63.9085Z" fill="url(#paint0_linear_1611_2675)"/>
<path fill-rule="evenodd" clip-rule="evenodd" d="M77.1521 32.2451C77.0291 33.0527 76.3346 33.6494 75.5177 33.6494H33.032C32.0198 33.6494 31.2452 32.748 31.3976 31.7473L32.5931 23.8965C32.7161 23.0889 33.4106 22.4922 34.2276 22.4922H76.7132C77.7255 22.4922 78.5 23.3936 78.3476 24.3943L77.1521 32.2451Z" fill="#FF462D"/>
<path fill-rule="evenodd" clip-rule="evenodd" d="M74.3858 50.4336C74.2629 51.2412 73.5684 51.8379 72.7514 51.8379H30.262C29.2497 51.8379 28.4752 50.9365 28.6276 49.9358L29.8231 42.085C29.9461 41.2774 30.6406 40.6807 31.4575 40.6807H73.947C74.9592 40.6807 75.7338 41.5821 75.5814 42.5828L74.3858 50.4336Z" fill="#FF462D"/>
<path d="M108.296 158.845C124.674 143.847 127.757 120.555 115.182 106.821C102.606 93.0874 79.1333 94.1123 62.7543 109.11C46.3754 124.108 43.2924 147.4 55.8683 161.134C68.4441 174.868 91.9166 173.843 108.296 158.845Z" fill="#FF462D"/>
<path d="M80.8967 137.603L109.366 76.4964C109.702 75.7849 110.423 75.3174 111.206 75.3174H140.448C141.272 75.3174 141.749 76.2423 141.282 76.9233L87.1476 153.733C86.7716 154.272 86.1516 154.597 85.4909 154.597H74.6865C74.2596 154.597 73.8733 154.333 73.731 153.927L62.2659 122.418C62.022 121.757 62.52 121.056 63.2213 121.056H76.2822C77.2681 121.056 78.1118 121.767 78.2845 122.733L80.9069 137.603H80.8967Z" fill="url(#paint1_linear_1611_2675)"/>
<defs>
<linearGradient id="paint0_linear_1611_2675" x1="16.6633" y1="49.0218" x2="137.873" y2="62.9026" gradientUnits="userSpaceOnUse">
<stop stop-color="white"/>
<stop offset="1" stop-color="#FF462D"/>
</linearGradient>
<linearGradient id="paint1_linear_1611_2675" x1="139.565" y1="75.3174" x2="82.9226" y2="154.597" gradientUnits="userSpaceOnUse">
<stop stop-color="#FF462D"/>
<stop offset="1" stop-color="white"/>
</linearGradient>
</defs>
</svg>
