<svg width="184" height="181" viewBox="0 0 184 181" fill="none" xmlns="http://www.w3.org/2000/svg">
<path fill-rule="evenodd" clip-rule="evenodd" d="M94.597 44.7695C10.0939 78.7695 16.0927 180.638 16.0927 180.638H142.594C142.594 180.638 111.344 113.27 149.844 48.0195L94.597 44.7695Z" fill="url(#paint0_linear_1611_2699)"/>
<path d="M121.586 93.2695C117.086 104.603 110.238 137.12 123.838 167.52" stroke="#FF462D" stroke-linecap="round" stroke-linejoin="round"/>
<path d="M89.6247 124.278H13.006C11.1125 124.278 9.3073 125.813 8.97607 127.707L0.248201 177.209C-0.083028 179.102 1.17564 180.637 3.06916 180.637H79.6823C81.5758 180.637 83.381 179.102 83.7123 177.209L92.4401 127.707C92.7714 125.813 91.5127 124.278 89.6192 124.278H89.6247ZM60.5428 143.799H35.2094C32.3442 143.799 30.4286 141.475 30.931 138.609C31.4389 135.744 34.1715 133.42 37.0366 133.42H62.3701C65.2352 133.42 67.1508 135.744 66.6485 138.609C66.1406 141.475 63.408 143.799 60.5428 143.799Z" fill="white"/>
<path d="M99.8475 118.099H4.95609C3.06256 118.099 1.79837 116.564 2.13512 114.671L3.14537 108.952C3.4766 107.058 5.28179 105.523 7.17532 105.523H102.061C103.955 105.523 105.219 107.058 104.882 108.952L103.872 114.671C103.541 116.564 101.736 118.099 99.842 118.099H99.8475Z" fill="white"/>
<path fill-rule="evenodd" clip-rule="evenodd" d="M74.9963 64.9309C79.2195 72.6057 88.5457 80.4701 102.041 81.3229C114.399 82.108 127.313 76.4499 134.987 70.9679C127.665 71.2927 119.881 71.2251 111.855 70.6972C98.3999 69.8309 85.798 67.7869 74.9963 64.9309ZM72.5057 58.4065C72.4515 58.2035 72.3974 58.0005 72.3568 57.7839C52.7838 52.9786 51.552 46.522 52.0123 39.2803C52.7297 28.2079 74.5496 20.6142 112.707 23.0778C150.865 25.5413 177.287 36.3565 176.57 47.4289C176.069 55.1308 166.418 61.1814 144.219 63.09C143.61 63.6855 143.001 64.2811 142.378 64.8496C133.201 65.6753 122.968 65.8107 112.207 65.1068C97.3035 64.1458 83.6051 61.7093 72.4921 58.3795L72.5057 58.4065Z" fill="white"/>
<path fill-rule="evenodd" clip-rule="evenodd" d="M83.7373 21.5889C86.5257 18.5298 89.5036 15.7008 92.5898 13.1831C100.238 6.97011 111.594 0.242757 124.169 1.04138C139.641 2.01596 147.735 13.1425 150.754 22.6041C151.187 23.9577 151.539 25.3384 151.837 26.7461C171.355 31.9304 184.093 39.7947 183.578 47.7945C182.78 60.0445 151.241 67.9765 113.11 65.4995C74.9931 63.0359 44.7403 51.0025 45.5389 38.7525C46.0939 30.2248 61.5384 23.8494 83.7373 21.5889Z" fill="white"/>
<path fill-rule="evenodd" clip-rule="evenodd" d="M104.937 53.6704C104.842 55.1999 108.984 56.7295 114.209 57.0679C119.434 57.4063 123.738 56.4452 123.833 54.9157C123.928 53.3861 119.786 51.843 114.561 51.5046C109.336 51.1662 105.031 52.1408 104.937 53.6704Z" fill="#FF462D"/>
<path fill-rule="evenodd" clip-rule="evenodd" d="M56.2555 38.061C56.1607 39.5906 60.3027 41.1201 65.5276 41.4585C70.7524 41.7969 75.0569 40.8359 75.1516 39.3063C75.2464 37.7768 71.1044 36.2337 65.8795 35.8953C60.6547 35.5569 56.3503 36.5314 56.2555 38.061Z" fill="#FF462D"/>
<path fill-rule="evenodd" clip-rule="evenodd" d="M155.202 44.3178C155.107 45.8474 159.249 47.377 164.474 47.7154C169.699 48.0538 174.003 47.0927 174.098 45.5631C174.193 44.0336 170.051 42.4905 164.826 42.1521C159.614 41.8137 155.297 42.7883 155.202 44.3178Z" fill="#FF462D"/>
<path fill-rule="evenodd" clip-rule="evenodd" d="M141.759 39.9844C143.6 33.7443 143.993 28.8849 143.154 23.5111C141.868 15.2813 137.496 9.19013 130.173 8.72991C118.261 7.9719 101.964 21.8327 93.9099 37.02C103.913 39.8761 110.857 41.0266 120.129 41.6222C131.635 42.3532 136.616 41.4056 141.759 39.9708V39.9844Z" fill="#FF462D"/>
<path fill-rule="evenodd" clip-rule="evenodd" d="M141.759 39.9844C143.6 33.7443 143.993 28.8849 143.154 23.5111C141.868 15.2813 137.496 9.19013 130.173 8.72991C118.261 7.9719 101.964 21.8327 93.9099 37.02C103.913 39.8761 110.857 41.0266 120.129 41.6222C131.635 42.3532 136.616 41.4056 141.759 39.9708V39.9844Z" fill="#FF462D"/>
<path d="M99.4949 136.52C98.5625 145.332 99.9302 151.895 102.68 159.02" stroke="#FF462D" stroke-linecap="round" stroke-linejoin="round"/>
<path d="M69.3469 76.0215C64.5931 80.271 57.8461 89.3955 55.3483 96.8932" stroke="#FF462D" stroke-linecap="round" stroke-linejoin="round"/>
<defs>
<linearGradient id="paint0_linear_1611_2699" x1="116.891" y1="44.7695" x2="89.5937" y2="268.77" gradientUnits="userSpaceOnUse">
<stop stop-color="#FF462D"/>
<stop offset="0.825209" stop-color="white"/>
</linearGradient>
</defs>
</svg>
