<svg xmlns="http://www.w3.org/2000/svg" width="190" height="60" viewBox="0 0 189.29 60">
<defs><style>.cls-1{fill:#3f3f3f}.colored_theme_svg{fill:#FF235c}</style></defs>
<path class="cls-1" d="M86.71,2.91h4.07V22.25H86.71Z"></path>
<path class="cls-1" d="M97.25,21.53A6.89,6.89,0,0,1,94.5,19a7,7,0,0,1-1-3.72,7.1,7.1,0,0,1,1-3.73A6.86,6.86,0,0,1,97.25,9a8.94,8.94,0,0,1,7.94,0,6.87,6.87,0,0,1,2.73,2.56,7.1,7.1,0,0,1,1,3.73,7,7,0,0,1-1,3.72,6.9,6.9,0,0,1-2.73,2.57,9,9,0,0,1-7.94,0Zm6.54-3.46a4,4,0,0,0,1-2.83,3.94,3.94,0,0,0-1-2.83,3.39,3.39,0,0,0-2.56-1.06,3.44,3.44,0,0,0-2.58,1.06,3.9,3.9,0,0,0-1,2.83,3.92,3.92,0,0,0,1,2.83,3.43,3.43,0,0,0,2.58,1.05A3.38,3.38,0,0,0,103.79,18.07Z"></path>
<path class="cls-1" d="M125.15,8.23l-5.92,14H115l-5.89-14h4.19l3.89,9.53,4-9.53Z"></path>
<path class="cls-1" d="M140.08,16.38H129.47a3.26,3.26,0,0,0,1.36,2.06,4.42,4.42,0,0,0,2.65.76,5.29,5.29,0,0,0,1.94-.33,4.73,4.73,0,0,0,1.58-1l2.16,2.35a7.25,7.25,0,0,1-5.78,2.26,9.07,9.07,0,0,1-4.19-.92A6.76,6.76,0,0,1,126.37,19a7,7,0,0,1-1-3.72,7.2,7.2,0,0,1,1-3.72A6.76,6.76,0,0,1,129,9a8.27,8.27,0,0,1,7.54,0,6.41,6.41,0,0,1,2.62,2.54,7.49,7.49,0,0,1,1,3.84C140.15,15.34,140.13,15.71,140.08,16.38Zm-9.51-4.5A3.3,3.3,0,0,0,129.42,14h6.9a3.39,3.39,0,0,0-1.14-2.12,3.74,3.74,0,0,0-4.61,0Z"></path>
<path class="cls-1" d="M108.85,38.44a6.32,6.32,0,0,1,1.55,4.65v8h-4.07v-7.4a3.76,3.76,0,0,0-.69-2.48,2.4,2.4,0,0,0-2-.82,2.88,2.88,0,0,0-2.27.92,4,4,0,0,0-.83,2.75v7H96.51v-7.4c0-2.2-.89-3.3-2.66-3.3a2.87,2.87,0,0,0-2.24.92,4,4,0,0,0-.83,2.75v7H86.71v-14H90.6v1.61a5.11,5.11,0,0,1,1.91-1.35A6.53,6.53,0,0,1,95,36.89a6,6,0,0,1,2.68.58,4.76,4.76,0,0,1,1.93,1.71,5.71,5.71,0,0,1,2.18-1.69,6.81,6.81,0,0,1,2.88-.6A5.66,5.66,0,0,1,108.85,38.44Z"></path>
<path class="cls-1" d="M124.7,38.44a5.91,5.91,0,0,1,1.75,4.68v8h-3.8V49.37c-.77,1.3-2.19,2-4.28,2a6.69,6.69,0,0,1-2.8-.54,4.2,4.2,0,0,1-1.81-1.52,3.89,3.89,0,0,1-.63-2.18A3.64,3.64,0,0,1,114.61,44a7.45,7.45,0,0,1,4.54-1.12h3.24a2.56,2.56,0,0,0-.81-2,3.56,3.56,0,0,0-2.43-.72,7.23,7.23,0,0,0-2.2.35,5.82,5.82,0,0,0-1.84,1l-1.45-2.84a8.87,8.87,0,0,1,2.74-1.25,12.56,12.56,0,0,1,3.3-.44A7.3,7.3,0,0,1,124.7,38.44Zm-3.46,9.66a2.63,2.63,0,0,0,1.15-1.42V45.25H119.6c-1.67,0-2.51.55-2.51,1.64a1.46,1.46,0,0,0,.62,1.24,2.7,2.7,0,0,0,1.68.46A3.48,3.48,0,0,0,121.24,48.1Z"></path>
<path class="cls-1" d="M136,37.41a7.28,7.28,0,0,1,2.85-.52v3.75l-.91,0a3.68,3.68,0,0,0-2.73,1,3.93,3.93,0,0,0-1,2.93v6.61h-4.07v-14H134V39A4.58,4.58,0,0,1,136,37.41Z"></path>
<path class="cls-1" d="M147.27,45.62l-2,1.93v3.56h-4.06V31.78h4.06V42.73l5.94-5.63h4.85L150.26,43l6.36,8.07H151.7Z"></path>
<path class="cls-1" d="M171.5,45.25H160.89a3.3,3.3,0,0,0,1.36,2.06,4.52,4.52,0,0,0,2.66.76,5.33,5.33,0,0,0,1.94-.33,4.69,4.69,0,0,0,1.57-1l2.17,2.34a7.25,7.25,0,0,1-5.79,2.27,9.2,9.2,0,0,1-4.19-.92,6.76,6.76,0,0,1-2.82-2.57,7.06,7.06,0,0,1-1-3.72,7.2,7.2,0,0,1,1-3.72,6.92,6.92,0,0,1,2.68-2.58,8,8,0,0,1,3.82-.92,7.87,7.87,0,0,1,3.73.88,6.53,6.53,0,0,1,2.62,2.54,7.66,7.66,0,0,1,1,3.85C171.58,44.21,171.55,44.57,171.5,45.25ZM162,40.75a3.28,3.28,0,0,0-1.15,2.13h6.91a3.33,3.33,0,0,0-1.15-2.12,3.74,3.74,0,0,0-4.61,0Z"></path>
<path class="cls-1" d="M183.33,50.44a4.32,4.32,0,0,1-1.47.66,7.42,7.42,0,0,1-1.84.22,5.45,5.45,0,0,1-3.87-1.27,4.93,4.93,0,0,1-1.37-3.76V40.54h-2.16V37.41h2.16V34h4.06v3.41h3.5v3.13h-3.5v5.7a1.94,1.94,0,0,0,.46,1.37,1.7,1.7,0,0,0,1.29.48,2.59,2.59,0,0,0,1.64-.52Z"></path>
<path class="colored_theme_svg" d="M66.15,6.46A20.93,20.93,0,0,0,37.81,5.31,20.94,20.94,0,0,0,9.46,36.08L32.13,58.74l5.68-5.68L15.13,30.4a12.91,12.91,0,0,1,17.48-19l5.2,4.42L43,11.42a12.91,12.91,0,0,1,21.26,9.85,12.82,12.82,0,0,1-3.78,9.13L37.81,53.06l5.67,5.68L66.15,36.08A20.94,20.94,0,0,0,66.15,6.46Z"></path>
</svg>