<svg width="1423" height="301" viewBox="0 0 1423 301" fill="none" xmlns="http://www.w3.org/2000/svg">
<g clip-path="url(#clip0_116_3486)">
<path d="M1192.03 129.012C1192.03 116.855 1203.47 109.979 1221.86 109.979C1244.23 109.979 1254.84 127.774 1254.84 127.774L1276.96 112.858C1276.96 112.858 1258.36 84.2032 1221.86 84.2032C1186.77 84.2032 1163.11 102.028 1163.11 130.564C1163.11 187.783 1251.11 164.111 1251.11 199.418C1251.11 213.156 1238.13 221.897 1219.45 221.897C1211.69 221.926 1204.04 220.075 1197.16 216.504C1190.27 212.932 1184.35 207.745 1179.91 201.387L1157.53 218.809C1157.53 218.809 1176.43 247.733 1219.42 247.733C1259.22 247.733 1280.95 226.447 1280.95 198.344C1280.91 138.082 1192.03 160.829 1192.03 129.012Z" fill="#FF2722"/>
<path d="M1334.12 129.012C1334.12 116.855 1345.56 109.979 1363.95 109.979C1386.33 109.979 1396.93 127.774 1396.93 127.774L1419.05 112.858C1419.05 112.858 1400.45 84.2032 1363.95 84.2032C1328.86 84.2032 1305.2 102.028 1305.2 130.564C1305.2 187.783 1393.2 164.111 1393.2 199.418C1393.2 213.156 1380.23 221.897 1361.54 221.897C1353.76 221.943 1346.09 220.1 1339.19 216.528C1332.28 212.955 1326.35 207.76 1321.89 201.387L1299.52 218.78C1299.52 218.78 1318.42 247.703 1361.4 247.703C1401.21 247.703 1422.94 226.417 1422.94 198.314C1423.02 138.082 1334.12 160.829 1334.12 129.012Z" fill="#FF2722"/>
<path d="M258.937 28.7734H230.106V243.019H258.937V28.7734Z" fill="#FF2722"/>
<path d="M333.953 88.2019H305.123V243.005H333.953V88.2019Z" fill="#FF2722"/>
<path d="M380.238 243.272H519.915V215.11H410.411V149.388H515.336V121.226H410.411V56.9357H519.915V28.7734H380.238V243.272Z" fill="#FF2722"/>
<path d="M697.966 88.2019H663.259L618.097 143.825L573.263 88.2019H537.2L599.886 165.738L536.528 243.273H569.893L616.74 186.293L663.259 243.273H698.652L634.951 164.723L697.966 88.2019Z" fill="#FF2722"/>
<path d="M790.315 84.2187C779.279 84.0934 768.33 86.1803 758.115 90.3562C747.899 94.5322 738.623 100.713 730.835 108.533C716.144 123.643 709.283 144.332 709.283 171.316V300.657H738.203V224.21C750.373 238.306 769.524 247.629 791.433 247.629C839.16 247.629 869.766 210.651 869.766 165.916C869.766 121.182 841.084 84.2187 790.315 84.2187ZM789.315 220.734C762.469 220.734 737.203 200.955 737.203 165.931C737.203 133.503 762.424 111.128 789.315 111.128C819.234 111.128 840.861 132.682 840.861 165.931C840.861 198.688 819.234 220.734 789.315 220.734Z" fill="#FF2722"/>
<path d="M924.565 110.204V88.3061H895.601V243.273H924.565V158.428C924.565 127.447 945.118 114.589 979.138 114.589V86.9636C950.845 86.9636 932.992 98.0764 924.565 110.204Z" fill="#FF2722"/>
<path d="M1068.68 84.2178C1021.93 84.2178 989.307 119.197 989.307 165.632C989.307 213.365 1023.61 247.672 1070.37 247.672C1097.22 247.672 1119.92 236.56 1133.64 217.198L1111.41 199.895C1103.35 213.693 1088.53 220.778 1070.38 220.778C1043.81 220.778 1022.66 201.939 1019.26 176.715H1144.11C1144.65 172.476 1144.87 168.203 1144.78 163.931C1144.7 119.54 1113.08 84.2178 1068.68 84.2178ZM1019.57 151.491C1022.94 127.625 1042.11 111.127 1068.68 111.127C1093.9 111.127 1110.73 127.61 1114.43 151.491H1019.57Z" fill="#FF2722"/>
<path d="M90.07 28.6394L-6.10352e-05 243.019H32.2903L53.0665 191.393H158.573L179.35 243.019H212.654L122.927 28.6394H90.07ZM64.2825 163.619L105.835 60.3369L147.372 163.619H64.2825Z" fill="#FF2722"/>
<path d="M321.92 0.656494H317.118C316.593 10.0991 312.606 19.0168 305.919 25.704C299.233 32.3913 290.316 36.3786 280.875 36.9035V41.7066C290.319 42.2318 299.237 46.2213 305.924 52.9117C312.611 59.602 316.596 68.5233 317.118 77.9685H321.935C322.505 68.5502 326.511 59.6687 333.195 53.0091C339.878 46.3496 348.774 42.3754 358.193 41.8408V37.0378C348.725 36.5137 339.785 32.5095 333.09 25.7943C326.395 19.0791 322.417 10.1266 321.92 0.656494Z" fill="#FF2722"/>
</g>
<defs>
<clipPath id="clip0_116_3486">
<rect width="1423" height="300" fill="white" transform="translate(0 0.656982)"/>
</clipPath>
</defs>
</svg>
