<svg width="60" height="36" viewBox="0 0 60 36" fill="none" xmlns="http://www.w3.org/2000/svg">
<g clip-path="url(#clip0_8910_269353)">
<path d="M12.0504 17.5797V11.5533H9.875V9.67188H16.3129V11.5533H14.1082V17.5797H12.0504Z" fill="black"/>
<path d="M22.8969 17.5797L22.4265 16.1686H19.6926L19.2223 17.5797H17.0469L20.0454 9.67188H22.1032L25.1017 17.5797H22.8969ZM21.0743 11.906L20.3099 14.4636H21.8386L21.0743 11.906Z" fill="black"/>
<path d="M26.3633 15.0207L28.1271 14.6973C28.3329 15.4028 28.7738 15.9026 29.7145 15.9026C30.3907 15.9026 30.9786 15.6086 30.9786 15.3146C30.9786 14.9619 30.6553 14.8149 29.8321 14.6091L28.8326 14.3445C27.0982 13.8742 26.4515 13.1687 26.4515 12.1104C26.4515 10.6405 27.7449 9.52344 29.6851 9.52344C31.6254 9.52344 32.9188 10.6111 32.9188 12.1398L31.155 12.4631C31.008 11.787 30.6259 11.2873 29.6851 11.2873C28.9796 11.2873 28.5387 11.5812 28.5387 11.9046C28.5387 12.1986 28.862 12.3455 29.5676 12.5219L30.5671 12.7865C32.4191 13.2863 33.0364 14.0506 33.0364 15.0501C33.0364 16.4905 31.7136 17.637 29.6851 17.637C27.6861 17.6958 26.3633 16.5199 26.3633 15.0207Z" fill="black"/>
<path d="M36.979 17.5797V11.5533H34.5391V9.67188H41.2416V11.5533H39.0368V17.5797H36.979Z" fill="black"/>
<path d="M44.9144 17.5778V14.9615L41.9453 9.64062H44.3559L45.9433 13.0213L47.5307 9.64062H49.9707L46.9722 14.9615V17.5778H44.9144Z" fill="black"/>
<path d="M21.9566 20.0195C23.8086 20.0195 25.1609 21.3424 25.1609 23.1356C25.1609 24.9288 23.8086 26.2811 21.986 26.2811C20.1634 26.2811 18.7817 24.9288 18.7817 23.165C18.7523 21.3718 20.134 20.0489 21.9566 20.0195ZM21.986 21.4894C21.0747 21.4894 20.3985 22.1655 20.3691 23.1356C20.3691 24.0763 21.0453 24.8112 21.9566 24.8112C22.8679 24.8112 23.544 24.1057 23.544 23.165C23.5734 22.1949 22.8973 21.5188 21.986 21.4894Z" fill="black"/>
<path d="M17.4528 22.1952C17.0118 22.3421 16.5709 22.4597 16.1593 22.5773C15.5126 21.6072 14.8952 21.3133 14.1015 21.5484C13.4254 21.7542 13.0138 22.3715 13.0138 23.1947C13.0138 23.9296 13.4842 24.5763 14.1309 24.7527C14.954 24.9879 15.5714 24.6645 16.1593 23.7238C16.5709 23.8414 17.0118 23.9884 17.4528 24.106C17.3352 24.7527 17.0412 25.2818 16.5415 25.664C15.0716 26.8105 12.1907 26.4283 11.5146 24.0178C11.1618 22.7243 11.6322 21.3426 12.6611 20.6077C13.7193 19.8434 15.3362 19.814 16.3945 20.5489C16.9824 20.9311 17.3058 21.4896 17.4528 22.1952Z" fill="black"/>
<path d="M42.3541 24.75V26.161H38.1797V20.1641H42.3541V21.5751H39.7377V22.3982H42.0307V23.8387H39.7377V24.75H42.3541Z" fill="black"/>
<path d="M45.8218 22.4276H48.0854V23.8387H45.7924V24.75H48.4087V26.161H44.2344V20.1641H48.4087V21.5457H45.8218V22.4276Z" fill="black"/>
<path d="M28.308 26.161H26.75V20.1641H30.9244V21.5457H28.308V22.3982H30.5716V23.8387H28.308V26.161Z" fill="black"/>
<path d="M34.0052 23.8387V26.161H32.4766V20.1641H36.6215V21.5457H34.0346V22.3982H36.2982V23.8387H34.0052Z" fill="black"/>
<path d="M58.0831 5.96759C49.4698 2.05779 39.71 0 29.9208 0C20.1022 0 10.3718 2.05779 1.75847 5.96759C1.19992 6.23216 0.847158 6.7907 0.935349 7.34925C2.02304 13.6402 3.16952 21.2834 4.37479 30.0143C4.43358 30.4847 4.78635 30.8962 5.2567 31.0726C13.0469 34.0417 21.3369 35.5704 29.9208 35.5704C38.3871 35.5704 46.9123 34.0123 54.5849 31.0726C55.0846 30.8962 55.408 30.4847 55.4668 30.0143C56.6721 21.2834 57.8186 13.6696 58.9063 7.34925C58.9944 6.7907 58.6417 6.23216 58.0831 5.96759ZM56.7603 7.46683C55.702 13.6402 54.5849 21.0188 53.4384 29.4558C46.0892 32.2191 37.9756 33.6889 29.9208 33.6889C21.7484 33.6889 13.8112 32.2779 6.40318 29.4558C5.2567 21.0482 4.13961 13.6402 3.08133 7.46683C11.3125 3.79221 20.6019 1.88141 29.9502 1.88141C39.2691 1.88141 48.5291 3.79221 56.7603 7.46683Z" fill="black"/>
</g>
<defs>
<clipPath id="clip0_8910_269353">
<rect width="58.5" height="35.5704" fill="white" transform="translate(0.640625)"/>
</clipPath>
</defs>
</svg>
